<svg width="900" height="500" xmlns="http://www.w3.org/2000/svg">
    <!-- Background -->
    <rect width="900" height="500" fill="#f8f9fa"/>
    <rect x="20" y="20" width="860" height="460" fill="white" stroke="#dee2e6" stroke-width="2" rx="12"/>
    
    <!-- Title -->
    <text x="40" y="45" fill="#495057" font-family="Arial, sans-serif" font-size="16" font-weight="bold">
        Supernodi Interpretativi: Labeling Automatico
    </text>
    
    <!-- Subtitle -->
    <text x="40" y="65" fill="#6c757d" font-family="Arial, sans-serif" font-size="12">
        54 supernodi con label automatici | Coverage: 83.7% | Score qualità: 0.6+
    </text>
    
    <!-- Graph area -->
    <g transform="translate(50, 20)">
        <line x1="-75.0" y1="267.5" x2="265.0" y2="167.5" stroke="#1976d2" stroke-width="3"/>
<polygon points="265.0,167.5 258.453741283396,173.59479259821748 256.19641069146365,165.91986858564732" fill="#1976d2"/>
<line x1="-75.0" y1="267.5" x2="435.0" y2="167.5" stroke="#1976d2" stroke-width="3"/>
<polygon points="435.0,167.5 427.9191478454668,172.9645706844767 426.3798321596987,165.11406068705946" fill="#1976d2"/>
<line x1="265.0" y1="167.5" x2="265.0" y2="167.5" stroke="#1976d2" stroke-width="3"/>
<line x1="265.0" y1="167.5" x2="435.0" y2="167.5" stroke="#1976d2" stroke-width="3"/>
<polygon points="435.0,167.5 427.0,171.5 427.0,163.5" fill="#1976d2"/>
<line x1="435.0" y1="167.5" x2="265.0" y2="167.5" stroke="#1976d2" stroke-width="3"/>
<polygon points="265.0,167.5 273.0,163.5 273.0,171.5" fill="#1976d2"/>
<line x1="435.0" y1="167.5" x2="435.0" y2="167.5" stroke="#1976d2" stroke-width="3"/>
<line x1="265.0" y1="167.5" x2="265.0" y2="167.5" stroke="#1976d2" stroke-width="3"/>
<line x1="265.0" y1="167.5" x2="435.0" y2="167.5" stroke="#1976d2" stroke-width="3"/>
<polygon points="435.0,167.5 427.0,171.5 427.0,163.5" fill="#1976d2"/>
<line x1="435.0" y1="267.5" x2="265.0" y2="167.5" stroke="#1976d2" stroke-width="3"/>
<polygon points="265.0,167.5 273.9235542275157,168.10842415187608 269.8673932150086,175.00389787313821" fill="#1976d2"/>
<line x1="435.0" y1="267.5" x2="435.0" y2="167.5" stroke="#1976d2" stroke-width="3"/>
<polygon points="435.0,167.5 439.0,175.5 431.0,175.5" fill="#1976d2"/>
<line x1="265.0" y1="267.5" x2="265.0" y2="167.5" stroke="#1976d2" stroke-width="3"/>
<polygon points="265.0,167.5 269.0,175.5 261.0,175.5" fill="#1976d2"/>
<line x1="265.0" y1="267.5" x2="435.0" y2="167.5" stroke="#1976d2" stroke-width="3"/>
<polygon points="435.0,167.5 430.1326067849914,175.00389787313821 426.0764457724843,168.10842415187608" fill="#1976d2"/>
<line x1="435.0" y1="167.5" x2="265.0" y2="167.5" stroke="#1976d2" stroke-width="3"/>
<polygon points="265.0,167.5 273.0,163.5 273.0,171.5" fill="#1976d2"/>
<line x1="435.0" y1="167.5" x2="435.0" y2="167.5" stroke="#1976d2" stroke-width="3"/>
<line x1="95.0" y1="267.5" x2="265.0" y2="167.5" stroke="#1976d2" stroke-width="3"/>
<polygon points="265.0,167.5 260.1326067849914,175.00389787313821 256.0764457724843,168.10842415187608" fill="#1976d2"/>
<line x1="95.0" y1="267.5" x2="435.0" y2="167.5" stroke="#1976d2" stroke-width="3"/>
<polygon points="435.0,167.5 428.453741283396,173.59479259821748 426.19641069146365,165.91986858564732" fill="#1976d2"/>
        <rect x="-145.0" y="250.0" width="140" height="35" fill="#e3f2fd" stroke="#1976d2" stroke-width="2" rx="8"/>
<text x="-75.0" y="272.0" text-anchor="middle" fill="#1565c0" font-family="Arial, sans-serif" font-size="10" font-weight="bold">Input Processing L...</text>
<rect x="-170.0" y="245.0" width="35" height="16" fill="white" stroke="#ccc" stroke-width="1" rx="8"/>
<text x="-153.0" y="257.0" text-anchor="middle" fill="#1976d2" font-family="Arial, sans-serif" font-size="9" font-weight="bold">50%</text>
<rect x="25.0" y="250.0" width="140" height="35" fill="#e3f2fd" stroke="#1976d2" stroke-width="2" rx="8"/>
<text x="95.0" y="272.0" text-anchor="middle" fill="#1565c0" font-family="Arial, sans-serif" font-size="10" font-weight="bold">Input Processing L...</text>
<rect x="0.0" y="245.0" width="35" height="16" fill="white" stroke="#ccc" stroke-width="1" rx="8"/>
<text x="17.0" y="257.0" text-anchor="middle" fill="#1976d2" font-family="Arial, sans-serif" font-size="9" font-weight="bold">50%</text>
<rect x="195.0" y="250.0" width="140" height="35" fill="#e3f2fd" stroke="#1976d2" stroke-width="2" rx="8"/>
<text x="265.0" y="272.0" text-anchor="middle" fill="#1565c0" font-family="Arial, sans-serif" font-size="10" font-weight="bold">Early: the</text>
<rect x="170.0" y="245.0" width="35" height="16" fill="white" stroke="#ccc" stroke-width="1" rx="8"/>
<text x="187.0" y="257.0" text-anchor="middle" fill="#1976d2" font-family="Arial, sans-serif" font-size="9" font-weight="bold">50%</text>
<rect x="365.0" y="250.0" width="140" height="35" fill="#e3f2fd" stroke="#1976d2" stroke-width="2" rx="8"/>
<text x="435.0" y="272.0" text-anchor="middle" fill="#1565c0" font-family="Arial, sans-serif" font-size="10" font-weight="bold">Input Processing L...</text>
<rect x="340.0" y="245.0" width="35" height="16" fill="white" stroke="#ccc" stroke-width="1" rx="8"/>
<text x="357.0" y="257.0" text-anchor="middle" fill="#1976d2" font-family="Arial, sans-serif" font-size="9" font-weight="bold">50%</text>
<rect x="365.0" y="150.0" width="140" height="35" fill="#e3f2fd" stroke="#1976d2" stroke-width="2" rx="8"/>
<text x="435.0" y="172.0" text-anchor="middle" fill="#1565c0" font-family="Arial, sans-serif" font-size="10" font-weight="bold">Input Processing L...</text>
<rect x="340.0" y="145.0" width="35" height="16" fill="white" stroke="#ccc" stroke-width="1" rx="8"/>
<text x="357.0" y="157.0" text-anchor="middle" fill="#1976d2" font-family="Arial, sans-serif" font-size="9" font-weight="bold">50%</text>
<rect x="195.0" y="150.0" width="140" height="35" fill="#e3f2fd" stroke="#1976d2" stroke-width="2" rx="8"/>
<text x="265.0" y="172.0" text-anchor="middle" fill="#1565c0" font-family="Arial, sans-serif" font-size="10" font-weight="bold">Integration: &lt;BOS&gt;</text>
<rect x="170.0" y="145.0" width="35" height="16" fill="white" stroke="#ccc" stroke-width="1" rx="8"/>
<text x="187.0" y="157.0" text-anchor="middle" fill="#1976d2" font-family="Arial, sans-serif" font-size="9" font-weight="bold">50%</text>
    </g>
    
    <!-- Prompt section -->
    <line x1="40" y1="320" x2="860" y2="320" stroke="#dee2e6" stroke-width="1"/>
    <text x="40" y="340" fill="#495057" font-family="Arial, sans-serif" font-size="12" font-weight="bold">
        PROMPT
    </text>
    
    <!-- Prompt text -->
    <text x="40" y="325" fill="#333" font-family="Arial, sans-serif" font-size="12">The capital of state containing Dallas is</text>
    
    <!-- Output section -->
    <text x="40" y="380" fill="#495057" font-family="Arial, sans-serif" font-size="12" font-weight="bold">
        TOP OUTPUTS
    </text>
    
    <!-- Output items -->
    <g transform="translate(0, 15)">
        <rect x="40" y="380" width="86" height="20" fill="#e9ecef" stroke="none" rx="6"/>
<text x="45" y="394" fill="#495057" font-family="Arial, sans-serif" font-size="11" font-weight="bold">Austin <tspan fill="#6c757d" font-size="10">75%</tspan></text>
<rect x="141" y="380" width="78" height="20" fill="#e9ecef" stroke="none" rx="6"/>
<text x="146" y="394" fill="#495057" font-family="Arial, sans-serif" font-size="11" font-weight="bold">Texas <tspan fill="#6c757d" font-size="10">15%</tspan></text>
<rect x="234" y="380" width="80" height="20" fill="#e9ecef" stroke="none" rx="6"/>
<text x="239" y="394" fill="#495057" font-family="Arial, sans-serif" font-size="11" font-weight="bold">Dallas <tspan fill="#6c757d" font-size="10">5%</tspan></text>
<rect x="329" y="380" width="72" height="20" fill="#e9ecef" stroke="none" rx="6"/>
<text x="334" y="394" fill="#495057" font-family="Arial, sans-serif" font-size="11" font-weight="bold">state <tspan fill="#6c757d" font-size="10">3%</tspan></text>
<rect x="416" y="380" width="88" height="20" fill="#e9ecef" stroke="none" rx="6"/>
<text x="421" y="394" fill="#495057" font-family="Arial, sans-serif" font-size="11" font-weight="bold">capital <tspan fill="#6c757d" font-size="10">2%</tspan></text>
    </g>
    
    <!-- Legend -->
    <g transform="translate(650, 100)">
        <!-- Semantic legend -->
        <rect x="0" y="0" width="20" height="15" fill="#e3f2fd" stroke="#1976d2" stroke-width="2" rx="3"/>
        <text x="25" y="12" fill="#333" font-family="Arial, sans-serif" font-size="11">Semantici</text>
        
        <!-- Computational legend -->
        <rect x="0" y="25" width="20" height="15" fill="#f3e5f5" stroke="#7b1fa2" stroke-width="2" rx="3"/>
        <text x="25" y="37" fill="#333" font-family="Arial, sans-serif" font-size="11">Computazionali</text>
        
        <!-- Stats -->
        <text x="0" y="60" fill="#495057" font-family="Arial, sans-serif" font-size="10" font-weight="bold">STATISTICHE</text>
        <text x="0" y="75" fill="#6c757d" font-family="Arial, sans-serif" font-size="9">Coerenza media: 0.842</text>
        <text x="0" y="90" fill="#6c757d" font-family="Arial, sans-serif" font-size="9">Feature coperte: 891</text>
        <text x="0" y="105" fill="#6c757d" font-family="Arial, sans-serif" font-size="9">Zero duplicati verificato</text>
    </g>
</svg>