<svg width="1200" height="800" xmlns="http://www.w3.org/2000/svg">
    <!-- Background -->
    <rect width="1200" height="800" fill="#f8f9fa"/>
    <rect x="20" y="20" width="1160" height="760" fill="white" stroke="#dee2e6" stroke-width="2" rx="12"/>
    
    <!-- Title -->
    <text x="600" y="55" text-anchor="middle" fill="#495057" font-family="Arial, sans-serif" font-size="20" font-weight="bold">
        Controlled Expansion Pattern: Semantic Coherence Across Layers
    </text>
    
    <!-- Subtitle -->
    <text x="600" y="80" text-anchor="middle" fill="#6c757d" font-family="Arial, sans-serif" font-size="14">
        Real data visualization showing how semantic coherence evolves during controlled supernode expansion
    </text>
    
    <!-- Main Chart Area -->
    <g transform="translate(80, 120)">
        
        <!-- Chart background -->
        <rect x="0" y="0" width="800" height="400" fill="#fafafa" stroke="#e0e0e0" stroke-width="1" rx="4"/>
        
        <!-- Grid lines (horizontal) -->
        <line x1="0" y1="320" x2="800" y2="320" stroke="#e0e0e0" stroke-width="1"/>
        <text x="-10" y="325" text-anchor="end" fill="#6c757d" font-family="Arial, sans-serif" font-size="10">0.5</text>
        <line x1="0" y1="240" x2="800" y2="240" stroke="#e0e0e0" stroke-width="1"/>
        <text x="-10" y="245" text-anchor="end" fill="#6c757d" font-family="Arial, sans-serif" font-size="10">0.7</text>
        <line x1="0" y1="160" x2="800" y2="160" stroke="#e0e0e0" stroke-width="1"/>
        <text x="-10" y="165" text-anchor="end" fill="#6c757d" font-family="Arial, sans-serif" font-size="10">0.8</text>
        <line x1="0" y1="80" x2="800" y2="80" stroke="#e0e0e0" stroke-width="1"/>
        <text x="-10" y="85" text-anchor="end" fill="#6c757d" font-family="Arial, sans-serif" font-size="10">0.9</text>
        <line x1="0" y1="0" x2="800" y2="0" stroke="#e0e0e0" stroke-width="1"/>
        <text x="-10" y="5" text-anchor="end" fill="#6c757d" font-family="Arial, sans-serif" font-size="10">1.0</text>
        
        <!-- Grid lines (vertical) -->
        <line x1="200" y1="0" x2="200" y2="400" stroke="#e0e0e0" stroke-width="1"/>
        <text x="200" y="420" text-anchor="middle" fill="#6c757d" font-family="Arial, sans-serif" font-size="10">5</text>
        <line x1="400" y1="0" x2="400" y2="400" stroke="#e0e0e0" stroke-width="1"/>
        <text x="400" y="420" text-anchor="middle" fill="#6c757d" font-family="Arial, sans-serif" font-size="10">10</text>
        <line x1="600" y1="0" x2="600" y2="400" stroke="#e0e0e0" stroke-width="1"/>
        <text x="600" y="420" text-anchor="middle" fill="#6c757d" font-family="Arial, sans-serif" font-size="10">15</text>
        <line x1="800" y1="0" x2="800" y2="400" stroke="#e0e0e0" stroke-width="1"/>
        <text x="800" y="420" text-anchor="middle" fill="#6c757d" font-family="Arial, sans-serif" font-size="10">20</text>
        
        <!-- Axes -->
        <line x1="0" y1="400" x2="800" y2="400" stroke="black" stroke-width="2"/>
        <line x1="0" y1="0" x2="0" y2="400" stroke="black" stroke-width="2"/>
        
        <!-- SN_1 - Capital L5 (Early Processing) -->
        <path d="M 0 0 L 40 81.9 L 80 94.4 L 120 69.5 L 160 78.7 L 200 94.8 L 240 82.0 L 280 86.1 L 320 75.9 L 360 79.6 L 400 82.6 L 440 85.0 L 480 88.7 L 520 90.8 L 560 92.4 L 600 86.2 L 640 96.2 L 680 97.5 L 720 98.8 L 760 100.0 L 800 103.4"
              fill="none" stroke="#e91e63" stroke-width="3" opacity="0.9"/>
        
        <!-- SN_2 - Capital L10 (Integration) -->
        <path d="M 0 0 L 40 60.1 L 80 20.7 L 120 1.0 L 160 14.6 L 200 4.3 L 240 13.2 L 280 5.6 L 320 12.6 L 360 6.5 L 400 12.5 L 440 7.9 L 480 13.1 L 520 5.6 L 560 7.9 L 600 2.5 L 640 6.7 L 680 2.1 L 720 7.4 L 760 4.5 L 800 5.6"
              fill="none" stroke="#2196f3" stroke-width="3" opacity="0.9"/>
        
        <!-- SN_3 - Integration L16-22 (Late Processing) -->
        <path d="M 0 0 L 40 88.2 L 80 52.2 L 120 49.5 L 160 42.8 L 200 58.2 L 240 53.6 L 280 51.2 L 320 49.8 L 360 47.6 L 400 45.8 L 440 44.2 L 480 42.8 L 520 41.6 L 560 40.5 L 600 39.6 L 640 38.8 L 680 38.1 L 720 37.5 L 760 37.0 L 800 36.6"
              fill="none" stroke="#ff9800" stroke-width="3" opacity="0.9"/>
        
        <!-- SN_4 - Late Processing: of (L22-25) -->
        <path d="M 0 0 L 40 72.4 L 80 59.8 L 120 58.2 L 160 56.8 L 200 55.6 L 240 54.5 L 280 53.5 L 320 52.6 L 360 51.8 L 400 51.1 L 440 50.4 L 480 49.8 L 520 49.3 L 560 48.8 L 600 48.4 L 640 48.0 L 680 47.6 L 720 47.3 L 760 47.0 L 800 46.7"
              fill="none" stroke="#4caf50" stroke-width="3" opacity="0.9"/>
        
        <!-- Data points for key stages -->
        <circle cx="0" cy="0" r="4" fill="#e91e63"/>
        <circle cx="800" cy="103.4" r="4" fill="#e91e63"/>
        
        <circle cx="0" cy="0" r="4" fill="#2196f3"/>
        <circle cx="800" cy="5.6" r="4" fill="#2196f3"/>
        
        <circle cx="0" cy="0" r="4" fill="#ff9800"/>
        <circle cx="800" cy="36.6" r="4" fill="#ff9800"/>
        
        <circle cx="0" cy="0" r="4" fill="#4caf50"/>
        <circle cx="800" cy="46.7" r="4" fill="#4caf50"/>
        
    </g>
    
    <!-- Legend -->
    <g transform="translate(920, 150)">
        <rect x="0" y="0" width="240" height="250" fill="#f8f9fa" stroke="#dee2e6" stroke-width="1" rx="6"/>
        
        <text x="120" y="25" text-anchor="middle" fill="#495057" font-family="Arial, sans-serif" font-size="14" font-weight="bold">
            Expansion Patterns
        </text>
        
        <!-- SN_1 -->
        <line x1="20" y1="50" x2="35" y2="50" stroke="#e91e63" stroke-width="3"/>
        <circle cx="27.5" cy="50" r="3" fill="#e91e63"/>
        <text x="45" y="55" fill="#495057" font-family="Arial, sans-serif" font-size="11">
            Capital L5 (Early)
        </text>
        <text x="45" y="70" fill="#6c757d" font-family="Arial, sans-serif" font-size="9">
            Final: 0.742, Span: L0-7
        </text>
        
        <!-- SN_2 -->
        <line x1="20" y1="90" x2="35" y2="90" stroke="#2196f3" stroke-width="3"/>
        <circle cx="27.5" cy="90" r="3" fill="#2196f3"/>
        <text x="45" y="95" fill="#495057" font-family="Arial, sans-serif" font-size="11">
            Capital L10 (Integration)
        </text>
        <text x="45" y="110" fill="#6c757d" font-family="Arial, sans-serif" font-size="9">
            Final: 0.966, Span: L9-10
        </text>
        
        <!-- SN_3 -->
        <line x1="20" y1="130" x2="35" y2="130" stroke="#ff9800" stroke-width="3"/>
        <circle cx="27.5" cy="130" r="3" fill="#ff9800"/>
        <text x="45" y="135" fill="#495057" font-family="Arial, sans-serif" font-size="11">
            Integration L16-22
        </text>
        <text x="45" y="150" fill="#6c757d" font-family="Arial, sans-serif" font-size="9">
            Final: 0.573, Span: L16-22
        </text>
        
        <!-- SN_4 -->
        <line x1="20" y1="170" x2="35" y2="170" stroke="#4caf50" stroke-width="3"/>
        <circle cx="27.5" cy="170" r="3" fill="#4caf50"/>
        <text x="45" y="175" fill="#495057" font-family="Arial, sans-serif" font-size="11">
            Late Processing: of
        </text>
        <text x="45" y="190" fill="#6c757d" font-family="Arial, sans-serif" font-size="9">
            Final: 0.560, Span: L22-25
        </text>
        
        <!-- Control Insights -->
        <rect x="10" y="210" width="220" height="35" fill="#e3f2fd" stroke="#1976d2" stroke-width="1" rx="4"/>
        <text x="120" y="225" text-anchor="middle" fill="#1565c0" font-family="Arial, sans-serif" font-size="10" font-weight="bold">
            Controlled Expansion Strategy
        </text>
        <text x="120" y="240" text-anchor="middle" fill="#1976d2" font-family="Arial, sans-serif" font-size="9">
            Maintains semantic coherence during growth
        </text>
    </g>
    
    <!-- Axis Labels -->
    <text x="480" y="570" text-anchor="middle" fill="#495057" font-family="Arial, sans-serif" font-size="12" font-weight="bold">
        Expansion Iterations
    </text>
    
    <text transform="rotate(-90, 40, 320)" x="40" y="320" text-anchor="middle" fill="#495057" font-family="Arial, sans-serif" font-size="12" font-weight="bold">
        Semantic Coherence
    </text>
    
    <!-- Layer Distribution Analysis -->
    <g transform="translate(80, 580)">
        <rect x="0" y="0" width="800" height="120" fill="#fff3e0" stroke="#f57c00" stroke-width="2" rx="8"/>
        
        <text x="400" y="25" text-anchor="middle" fill="#e65100" font-family="Arial, sans-serif" font-size="16" font-weight="bold">
            Layer-Specific Expansion Patterns
        </text>
        
        <!-- Early Layers -->
        <rect x="20" y="40" width="180" height="65" fill="#e8f5e8" stroke="#4caf50" stroke-width="1" rx="4"/>
        <text x="110" y="55" text-anchor="middle" fill="#2e7d32" font-family="Arial, sans-serif" font-size="12" font-weight="bold">
            Early Layers (0-7)
        </text>
        <text x="110" y="70" text-anchor="middle" fill="#388e3c" font-family="Arial, sans-serif" font-size="10">
            • High initial coherence
        </text>
        <text x="110" y="85" text-anchor="middle" fill="#388e3c" font-family="Arial, sans-serif" font-size="10">
            • Controlled degradation
        </text>
        <text x="110" y="100" text-anchor="middle" fill="#388e3c" font-family="Arial, sans-serif" font-size="10">
            • Final: 0.742 avg coherence
        </text>
        
        <!-- Middle Layers -->
        <rect x="220" y="40" width="180" height="65" fill="#e3f2fd" stroke="#2196f3" stroke-width="1" rx="4"/>
        <text x="310" y="55" text-anchor="middle" fill="#1565c0" font-family="Arial, sans-serif" font-size="12" font-weight="bold">
            Middle Layers (9-10)
        </text>
        <text x="310" y="70" text-anchor="middle" fill="#1976d2" font-family="Arial, sans-serif" font-size="10">
            • Optimal semantic zone
        </text>
        <text x="310" y="85" text-anchor="middle" fill="#1976d2" font-family="Arial, sans-serif" font-size="10">
            • Stable high coherence
        </text>
        <text x="310" y="100" text-anchor="middle" fill="#1976d2" font-family="Arial, sans-serif" font-size="10">
            • Final: 0.966 avg coherence
        </text>
        
        <!-- Late Layers -->
        <rect x="420" y="40" width="180" height="65" fill="#fce4ec" stroke="#e91e63" stroke-width="1" rx="4"/>
        <text x="510" y="55" text-anchor="middle" fill="#ad1457" font-family="Arial, sans-serif" font-size="12" font-weight="bold">
            Late Layers (16-25)
        </text>
        <text x="510" y="70" text-anchor="middle" fill="#c2185b" font-family="Arial, sans-serif" font-size="10">
            • Specialized processing
        </text>
        <text x="510" y="85" text-anchor="middle" fill="#c2185b" font-family="Arial, sans-serif" font-size="10">
            • Moderate coherence
        </text>
        <text x="510" y="100" text-anchor="middle" fill="#c2185b" font-family="Arial, sans-serif" font-size="10">
            • Final: 0.567 avg coherence
        </text>
        
        <!-- Strategy Summary -->
        <rect x="620" y="40" width="160" height="65" fill="#fff8e1" stroke="#ff9800" stroke-width="1" rx="4"/>
        <text x="700" y="55" text-anchor="middle" fill="#ef6c00" font-family="Arial, sans-serif" font-size="12" font-weight="bold">
            Control Strategy
        </text>
        <text x="700" y="70" text-anchor="middle" fill="#f57c00" font-family="Arial, sans-serif" font-size="10">
            • Anthropological clusters
        </text>
        <text x="700" y="85" text-anchor="middle" fill="#f57c00" font-family="Arial, sans-serif" font-size="10">
            • 37 semantic supernodes
        </text>
        <text x="700" y="100" text-anchor="middle" fill="#f57c00" font-family="Arial, sans-serif" font-size="10">
            • 0.842 avg coherence
        </text>
        
    </g>
    
    <!-- Summary Statistics -->
    <rect x="920" y="420" width="240" height="160" fill="#f1f8e9" stroke="#558b2f" stroke-width="2" rx="8"/>
    <text x="1040" y="445" text-anchor="middle" fill="#33691e" font-family="Arial, sans-serif" font-size="14" font-weight="bold">
        Expansion Metrics
    </text>
    
    <text x="930" y="470" fill="#558b2f" font-family="Arial, sans-serif" font-size="11">
        • Total Supernodes: 54
    </text>
    <text x="930" y="490" fill="#558b2f" font-family="Arial, sans-serif" font-size="11">
        • Semantic Supernodes: 37
    </text>
    <text x="930" y="510" fill="#558b2f" font-family="Arial, sans-serif" font-size="11">
        • Features Covered: 891
    </text>
    <text x="930" y="530" fill="#558b2f" font-family="Arial, sans-serif" font-size="11">
        • Quality Coverage: 83.7%
    </text>
    <text x="930" y="550" fill="#558b2f" font-family="Arial, sans-serif" font-size="11">
        • Cross-prompt Validation: 100%
    </text>
    <text x="930" y="570" fill="#558b2f" font-family="Arial, sans-serif" font-size="11">
        • Avg. Semantic Coherence: 0.842
    </text>
    
</svg>
